<?xml version="1.0" encoding="UTF-8"?>
<!DOCTYPE svg PUBLIC "-//W3C//DTD SVG 1.1//EN" "http://www.w3.org/Graphics/SVG/1.1/DTD/svg11.dtd">
<svg version="1.1" xmlns="http://www.w3.org/2000/svg" xmlns:xlink="http://www.w3.org/1999/xlink" x="0" y="0" width="512" height="512" viewBox="0, 0, 512, 512">
  <defs>
    <linearGradient id="Gradient_1" gradientUnits="userSpaceOnUse" x1="970.289" y1="13.289" x2="1307.917" y2="13.289">
      <stop offset="0" stop-color="#FF0400"/>
      <stop offset="1" stop-color="#BA3058"/>
    </linearGradient>
    <linearGradient id="Gradient_2" gradientUnits="userSpaceOnUse" x1="969.799" y1="59.901" x2="1308.507" y2="59.901">
      <stop offset="0" stop-color="#FF0400"/>
      <stop offset="1" stop-color="#BA3058"/>
    </linearGradient>
    <linearGradient id="Gradient_3" gradientUnits="userSpaceOnUse" x1="1073.954" y1="-98.921" x2="1207.336" y2="-98.921">
      <stop offset="0" stop-color="#FF0400"/>
      <stop offset="1" stop-color="#BA3058"/>
    </linearGradient>
    <linearGradient id="Gradient_4" gradientUnits="userSpaceOnUse" x1="1073.954" y1="-98.921" x2="1207.336" y2="-98.921">
      <stop offset="0" stop-color="#FF0400"/>
      <stop offset="1" stop-color="#BA3058"/>
    </linearGradient>
    <linearGradient id="Gradient_5" gradientUnits="userSpaceOnUse" x1="1073.954" y1="-98.921" x2="1207.336" y2="-98.921">
      <stop offset="0" stop-color="#FF0400"/>
      <stop offset="1" stop-color="#BA3058"/>
    </linearGradient>
    <linearGradient id="Gradient_6" gradientUnits="userSpaceOnUse" x1="1073.954" y1="-98.921" x2="1207.336" y2="-98.921">
      <stop offset="0" stop-color="#FF0400"/>
      <stop offset="1" stop-color="#BA3058"/>
    </linearGradient>
    <linearGradient id="Gradient_7" gradientUnits="userSpaceOnUse" x1="1073.954" y1="-98.921" x2="1207.336" y2="-98.921">
      <stop offset="0" stop-color="#FF0400"/>
      <stop offset="1" stop-color="#BA3058"/>
    </linearGradient>
    <linearGradient id="Gradient_8" gradientUnits="userSpaceOnUse" x1="38.47" y1="288.634" x2="450.738" y2="288.634">
      <stop offset="0" stop-color="#FF0400"/>
      <stop offset="1" stop-color="#BA3058"/>
    </linearGradient>
    <linearGradient id="Gradient_9" gradientUnits="userSpaceOnUse" x1="46.623" y1="288.634" x2="442.433" y2="288.634">
      <stop offset="0" stop-color="#FF0400"/>
      <stop offset="1" stop-color="#BA3058"/>
    </linearGradient>
    <linearGradient id="Gradient_10" gradientUnits="userSpaceOnUse" x1="39.373" y1="289.04" x2="449.342" y2="289.04">
      <stop offset="0" stop-color="#FF0400"/>
      <stop offset="1" stop-color="#BA3058"/>
    </linearGradient>
    <linearGradient id="Gradient_11" gradientUnits="userSpaceOnUse" x1="38.062" y1="289.04" x2="454.749" y2="289.04">
      <stop offset="0" stop-color="#FF0400"/>
      <stop offset="1" stop-color="#BA3058"/>
    </linearGradient>
    <linearGradient id="Gradient_12" gradientUnits="userSpaceOnUse" x1="159.801" y1="-518.851" x2="458.089" y2="-518.851">
      <stop offset="0" stop-color="#FF0400"/>
      <stop offset="1" stop-color="#BA3058"/>
    </linearGradient>
    <linearGradient id="Gradient_13" gradientUnits="userSpaceOnUse" x1="219.297" y1="-516.358" x2="404.024" y2="-516.358">
      <stop offset="0" stop-color="#FF0400"/>
      <stop offset="1" stop-color="#BA3058"/>
    </linearGradient>
    <linearGradient id="Gradient_14" gradientUnits="userSpaceOnUse" x1="219.297" y1="-516.358" x2="404.024" y2="-516.358">
      <stop offset="0" stop-color="#FF0400"/>
      <stop offset="1" stop-color="#BA3058"/>
    </linearGradient>
    <linearGradient id="Gradient_15" gradientUnits="userSpaceOnUse" x1="219.297" y1="-516.358" x2="404.024" y2="-516.358">
      <stop offset="0" stop-color="#FF0400"/>
      <stop offset="1" stop-color="#BA3058"/>
    </linearGradient>
    <linearGradient id="Gradient_16" gradientUnits="userSpaceOnUse" x1="219.297" y1="-516.358" x2="404.024" y2="-516.358">
      <stop offset="0" stop-color="#FF0400"/>
      <stop offset="1" stop-color="#BA3058"/>
    </linearGradient>
    <linearGradient id="Gradient_17" gradientUnits="userSpaceOnUse" x1="219.297" y1="-516.358" x2="404.024" y2="-516.358">
      <stop offset="0" stop-color="#FF0400"/>
      <stop offset="1" stop-color="#BA3058"/>
    </linearGradient>
    <linearGradient id="Gradient_18" gradientUnits="userSpaceOnUse" x1="219.297" y1="-516.358" x2="404.024" y2="-516.358">
      <stop offset="0" stop-color="#FF0400"/>
      <stop offset="1" stop-color="#BA3058"/>
    </linearGradient>
    <linearGradient id="Gradient_19" gradientUnits="userSpaceOnUse" x1="219.297" y1="-516.358" x2="404.024" y2="-516.358">
      <stop offset="0" stop-color="#FF0400"/>
      <stop offset="1" stop-color="#BA3058"/>
    </linearGradient>
  </defs>
  <g id="Layer_1">
    <g>
      <g>
        <path d="M1250.577,-155.524 C1282.245,-155.524 1307.916,-129.853 1307.916,-98.185 L1307.916,124.764 C1307.916,156.431 1282.245,182.103 1250.577,182.103 L1027.628,182.103 C995.96,182.103 970.289,156.431 970.289,124.764 L970.289,-98.185 C970.289,-129.853 995.96,-155.524 1027.628,-155.524 L1250.577,-155.524 z M1286.167,-39.958 L992.038,-39.958 L992.038,124.764 C992.038,144.42 1007.972,160.354 1027.628,160.354 L1250.577,160.353 C1270.233,160.354 1286.167,144.42 1286.167,124.764 L1286.167,-39.958 z M1250.577,-133.775 L1027.628,-133.775 C1007.972,-133.775 992.038,-117.841 992.038,-98.185 L992.038,-66.008 L1286.167,-66.008 L1286.167,-98.185 C1286.167,-117.841 1270.233,-133.775 1250.577,-133.775 z" fill="url(#Gradient_1)" opacity="0.83"/>
        <g opacity="0.83">
          <path d="M1181.631,19.329 L1181.631,-2.381 L1096.572,-2.381 L1096.572,21.108 L1155.651,21.108 Q1137.856,42.64 1126.912,68.443 Q1115.968,94.245 1113.833,122.183 L1140.881,122.183 Q1141.059,109.727 1143.817,95.313 Q1146.575,80.899 1151.647,66.841 Q1156.719,52.783 1164.281,40.327 Q1171.844,27.87 1181.631,19.329 z" fill="#3F3F3F"/>
          <path d="M1181.631,19.329 L1181.631,-2.381 L1096.572,-2.381 L1096.572,21.108 L1155.651,21.108 Q1137.856,42.64 1126.912,68.443 Q1115.968,94.245 1113.833,122.183 L1140.881,122.183 Q1141.059,109.727 1143.817,95.313 Q1146.575,80.899 1151.647,66.841 Q1156.719,52.783 1164.281,40.327 Q1171.844,27.87 1181.631,19.329 z" fill="url(#Gradient_2)"/>
        </g>
      </g>
      <path d="M1086.529,-85.061 L1086.529,-112.742 L1082.06,-112.742 Q1081.823,-111.16 1081.072,-110.093 Q1080.32,-109.025 1079.233,-108.372 Q1078.145,-107.72 1076.781,-107.463 Q1075.417,-107.206 1073.954,-107.245 L1073.954,-103.014 L1080.913,-103.014 L1080.913,-85.061 z" fill="url(#Gradient_3)" opacity="0.83"/>
      <path d="M1133.626,-85.061 L1141.218,-113.296 L1135.129,-113.296 L1130.502,-93.84 L1130.423,-93.84 L1125.598,-113.296 L1119.785,-113.296 L1114.882,-94.077 L1114.803,-94.077 L1110.334,-113.296 L1104.126,-113.296 L1111.6,-85.061 L1117.887,-85.061 L1122.593,-104.28 L1122.672,-104.28 L1127.457,-85.061 z" fill="url(#Gradient_4)" opacity="0.83"/>
      <path d="M1154.98,-97.478 L1145.845,-97.478 Q1145.884,-98.071 1146.102,-98.822 Q1146.319,-99.574 1146.853,-100.246 Q1147.387,-100.918 1148.277,-101.373 Q1149.167,-101.828 1150.511,-101.828 Q1152.567,-101.828 1153.576,-100.721 Q1154.584,-99.613 1154.98,-97.478 z M1145.845,-93.919 L1160.595,-93.919 Q1160.753,-96.292 1160.199,-98.467 Q1159.646,-100.641 1158.4,-102.342 Q1157.155,-104.042 1155.217,-105.051 Q1153.279,-106.059 1150.669,-106.059 Q1148.336,-106.059 1146.418,-105.229 Q1144.5,-104.398 1143.116,-102.955 Q1141.732,-101.511 1140.981,-99.534 Q1140.23,-97.557 1140.23,-95.263 Q1140.23,-92.891 1140.961,-90.914 Q1141.693,-88.936 1143.037,-87.513 Q1144.382,-86.089 1146.319,-85.318 Q1148.257,-84.547 1150.669,-84.547 Q1154.149,-84.547 1156.601,-86.129 Q1159.053,-87.711 1160.239,-91.388 L1155.296,-91.388 Q1155.019,-90.439 1153.793,-89.589 Q1152.567,-88.739 1150.867,-88.739 Q1148.494,-88.739 1147.229,-89.965 Q1145.964,-91.19 1145.845,-93.919 z" fill="url(#Gradient_5)" opacity="0.83"/>
      <path d="M1177.678,-97.478 L1168.543,-97.478 Q1168.583,-98.071 1168.8,-98.822 Q1169.018,-99.574 1169.552,-100.246 Q1170.086,-100.918 1170.975,-101.373 Q1171.865,-101.828 1173.209,-101.828 Q1175.266,-101.828 1176.274,-100.721 Q1177.283,-99.613 1177.678,-97.478 z M1168.543,-93.919 L1183.293,-93.919 Q1183.451,-96.292 1182.898,-98.467 Q1182.344,-100.641 1181.099,-102.342 Q1179.853,-104.042 1177.915,-105.051 Q1175.978,-106.059 1173.368,-106.059 Q1171.035,-106.059 1169.117,-105.229 Q1167.199,-104.398 1165.815,-102.955 Q1164.431,-101.511 1163.679,-99.534 Q1162.928,-97.557 1162.928,-95.263 Q1162.928,-92.891 1163.66,-90.914 Q1164.391,-88.936 1165.736,-87.513 Q1167.08,-86.089 1169.018,-85.318 Q1170.955,-84.547 1173.368,-84.547 Q1176.848,-84.547 1179.299,-86.129 Q1181.751,-87.711 1182.937,-91.388 L1177.994,-91.388 Q1177.718,-90.439 1176.492,-89.589 Q1175.266,-88.739 1173.565,-88.739 Q1171.193,-88.739 1169.927,-89.965 Q1168.662,-91.19 1168.543,-93.919 z" fill="url(#Gradient_6)" opacity="0.83"/>
      <path d="M1187.129,-113.296 L1187.129,-85.061 L1192.744,-85.061 L1192.744,-92.1 L1194.919,-94.196 L1200.534,-85.061 L1207.336,-85.061 L1198.755,-97.992 L1206.466,-105.505 L1199.822,-105.505 L1192.744,-98.15 L1192.744,-113.296 z" fill="url(#Gradient_7)" opacity="0.83"/>
    </g>
    <g>
      <path d="M495.389,131.821 C500.163,131.821 504.032,135.691 504.032,140.464 L504.032,335.33 C504.032,340.104 500.163,343.973 495.389,343.973 L477.374,343.973 L477.374,360.638 C477.374,365.412 473.505,369.282 468.731,369.282 L450.737,369.282 L450.737,386.066 C450.737,390.84 446.867,394.71 442.094,394.71 L47.112,394.709 C42.339,394.71 38.47,390.84 38.47,386.067 L38.469,191.2 C38.47,186.427 42.339,182.557 47.113,182.557 L65.106,182.557 L65.106,165.772 C65.107,160.999 68.976,157.13 73.75,157.13 L91.765,157.13 L91.765,140.464 C91.765,135.691 95.634,131.821 100.408,131.821 L495.389,131.821 z M434.21,197.482 L54.996,197.482 L54.996,379.785 L434.21,379.785 L434.21,197.482 z M460.848,172.054 L81.633,172.054 L81.633,182.557 L442.094,182.557 C446.867,182.557 450.737,186.427 450.737,191.2 L450.737,354.357 L460.848,354.357 L460.848,172.054 z M487.506,146.745 L108.291,146.745 L108.291,157.13 L468.731,157.129 C473.505,157.13 477.374,160.999 477.374,165.773 L477.374,329.049 L487.506,329.049 L487.506,146.745 z" fill="url(#Gradient_8)" opacity="0.83"/>
      <g opacity="0.83">
        <path d="M244.603,213.807 C285.929,213.807 319.43,247.308 319.43,288.634 C319.43,329.959 285.929,363.46 244.603,363.46 C203.278,363.46 169.777,329.959 169.777,288.634 C169.777,247.308 203.278,213.807 244.603,213.807 z M244.603,228.842 C211.581,228.842 184.811,255.612 184.811,288.634 C184.811,321.656 211.581,348.426 244.603,348.426 C277.625,348.426 304.395,321.656 304.395,288.634 C304.395,255.612 277.625,228.842 244.603,228.842 z" fill="#FFFFFF"/>
        <path d="M244.603,213.807 C285.929,213.807 319.43,247.308 319.43,288.634 C319.43,329.959 285.929,363.46 244.603,363.46 C203.278,363.46 169.777,329.959 169.777,288.634 C169.777,247.308 203.278,213.807 244.603,213.807 z M244.603,228.842 C211.581,228.842 184.811,255.612 184.811,288.634 C184.811,321.656 211.581,348.426 244.603,348.426 C277.625,348.426 304.395,321.656 304.395,288.634 C304.395,255.612 277.625,228.842 244.603,228.842 z" fill="url(#Gradient_9)"/>
      </g>
      <g opacity="0.83">
        <path d="M99.847,297.441 L90.098,297.441 Q90.789,305.6 95.145,309.818 Q99.501,314.036 107.245,314.589 L107.245,320.466 L111.325,320.466 L111.325,314.589 Q116.511,314.243 119.83,312.514 Q123.148,310.786 125.119,308.573 Q127.09,306.361 127.85,304.044 Q128.611,301.728 128.611,300.207 Q128.611,298.478 128.369,296.266 Q128.127,294.053 126.813,291.84 Q125.499,289.628 122.734,287.588 Q119.968,285.548 114.851,284.165 Q113.883,283.889 113.019,283.681 Q112.155,283.474 111.325,283.266 L111.325,271.028 Q113.676,271.028 115.335,272.964 Q116.995,274.9 117.064,277.666 L126.882,277.666 Q126.675,274.07 125.361,271.443 Q124.047,268.815 121.973,267.052 Q119.899,265.289 117.167,264.286 Q114.436,263.284 111.325,262.938 L111.325,257.614 L107.245,257.614 L107.245,262.938 Q104.134,263.146 101.23,264.148 Q98.326,265.151 96.113,266.983 Q93.9,268.815 92.552,271.512 Q91.204,274.209 91.204,277.735 Q91.204,281.192 92.379,283.508 Q93.555,285.825 95.525,287.381 Q97.496,288.936 99.985,289.87 Q102.474,290.803 105.033,291.495 Q105.724,291.633 106.312,291.806 Q106.9,291.979 107.245,292.117 L107.245,306.568 Q104.065,305.946 101.921,303.664 Q99.778,301.382 99.847,297.441 z M111.325,306.568 L111.325,293.292 Q115.404,294.399 117.098,295.747 Q118.792,297.095 118.792,299.792 Q118.792,301.451 118.101,302.661 Q117.409,303.871 116.338,304.701 Q115.266,305.531 113.918,305.98 Q112.569,306.43 111.325,306.568 z M107.245,271.028 L107.245,282.298 Q103.926,281.538 102.474,280.293 Q101.022,279.049 101.022,276.767 Q101.022,275.315 101.541,274.243 Q102.059,273.171 102.958,272.445 Q103.857,271.719 104.964,271.374 Q106.07,271.028 107.245,271.028 z" fill="#3F3F3F"/>
        <path d="M99.847,297.441 L90.098,297.441 Q90.789,305.6 95.145,309.818 Q99.501,314.036 107.245,314.589 L107.245,320.466 L111.325,320.466 L111.325,314.589 Q116.511,314.243 119.83,312.514 Q123.148,310.786 125.119,308.573 Q127.09,306.361 127.85,304.044 Q128.611,301.728 128.611,300.207 Q128.611,298.478 128.369,296.266 Q128.127,294.053 126.813,291.84 Q125.499,289.628 122.734,287.588 Q119.968,285.548 114.851,284.165 Q113.883,283.889 113.019,283.681 Q112.155,283.474 111.325,283.266 L111.325,271.028 Q113.676,271.028 115.335,272.964 Q116.995,274.9 117.064,277.666 L126.882,277.666 Q126.675,274.07 125.361,271.443 Q124.047,268.815 121.973,267.052 Q119.899,265.289 117.167,264.286 Q114.436,263.284 111.325,262.938 L111.325,257.614 L107.245,257.614 L107.245,262.938 Q104.134,263.146 101.23,264.148 Q98.326,265.151 96.113,266.983 Q93.9,268.815 92.552,271.512 Q91.204,274.209 91.204,277.735 Q91.204,281.192 92.379,283.508 Q93.555,285.825 95.525,287.381 Q97.496,288.936 99.985,289.87 Q102.474,290.803 105.033,291.495 Q105.724,291.633 106.312,291.806 Q106.9,291.979 107.245,292.117 L107.245,306.568 Q104.065,305.946 101.921,303.664 Q99.778,301.382 99.847,297.441 z M111.325,306.568 L111.325,293.292 Q115.404,294.399 117.098,295.747 Q118.792,297.095 118.792,299.792 Q118.792,301.451 118.101,302.661 Q117.409,303.871 116.338,304.701 Q115.266,305.531 113.918,305.98 Q112.569,306.43 111.325,306.568 z M107.245,271.028 L107.245,282.298 Q103.926,281.538 102.474,280.293 Q101.022,279.049 101.022,276.767 Q101.022,275.315 101.541,274.243 Q102.059,273.171 102.958,272.445 Q103.857,271.719 104.964,271.374 Q106.07,271.028 107.245,271.028 z" fill="url(#Gradient_10)"/>
      </g>
      <g opacity="0.83">
        <path d="M370.791,297.441 L361.042,297.441 Q361.733,305.6 366.089,309.818 Q370.445,314.036 378.189,314.589 L378.189,320.466 L382.269,320.466 L382.269,314.589 Q387.455,314.243 390.774,312.514 Q394.092,310.786 396.063,308.573 Q398.034,306.361 398.794,304.044 Q399.555,301.728 399.555,300.207 Q399.555,298.478 399.313,296.266 Q399.071,294.053 397.757,291.84 Q396.443,289.628 393.678,287.588 Q390.912,285.548 385.795,284.165 Q384.827,283.889 383.963,283.681 Q383.099,283.474 382.269,283.266 L382.269,271.028 Q384.62,271.028 386.279,272.964 Q387.939,274.9 388.008,277.666 L397.826,277.666 Q397.619,274.07 396.305,271.443 Q394.991,268.815 392.917,267.052 Q390.843,265.289 388.112,264.286 Q385.38,263.284 382.269,262.938 L382.269,257.614 L378.189,257.614 L378.189,262.938 Q375.078,263.145 372.174,264.148 Q369.27,265.151 367.057,266.983 Q364.845,268.815 363.496,271.512 Q362.148,274.209 362.148,277.735 Q362.148,281.192 363.323,283.508 Q364.499,285.825 366.469,287.381 Q368.44,288.936 370.929,289.87 Q373.418,290.803 375.977,291.495 Q376.668,291.633 377.256,291.806 Q377.844,291.979 378.189,292.117 L378.189,306.568 Q375.009,305.946 372.865,303.664 Q370.722,301.382 370.791,297.441 z M382.269,306.568 L382.269,293.292 Q386.348,294.399 388.042,295.747 Q389.736,297.095 389.736,299.792 Q389.736,301.451 389.045,302.661 Q388.354,303.871 387.282,304.701 Q386.21,305.531 384.862,305.98 Q383.513,306.43 382.269,306.568 z M378.189,271.028 L378.189,282.298 Q374.87,281.538 373.418,280.293 Q371.966,279.049 371.966,276.767 Q371.966,275.315 372.485,274.243 Q373.004,273.171 373.902,272.445 Q374.801,271.719 375.908,271.374 Q377.014,271.028 378.189,271.028 z" fill="#3F3F3F"/>
        <path d="M370.791,297.441 L361.042,297.441 Q361.733,305.6 366.089,309.818 Q370.445,314.036 378.189,314.589 L378.189,320.466 L382.269,320.466 L382.269,314.589 Q387.455,314.243 390.774,312.514 Q394.092,310.786 396.063,308.573 Q398.034,306.361 398.794,304.044 Q399.555,301.728 399.555,300.207 Q399.555,298.478 399.313,296.266 Q399.071,294.053 397.757,291.84 Q396.443,289.628 393.678,287.588 Q390.912,285.548 385.795,284.165 Q384.827,283.889 383.963,283.681 Q383.099,283.474 382.269,283.266 L382.269,271.028 Q384.62,271.028 386.279,272.964 Q387.939,274.9 388.008,277.666 L397.826,277.666 Q397.619,274.07 396.305,271.443 Q394.991,268.815 392.917,267.052 Q390.843,265.289 388.112,264.286 Q385.38,263.284 382.269,262.938 L382.269,257.614 L378.189,257.614 L378.189,262.938 Q375.078,263.145 372.174,264.148 Q369.27,265.151 367.057,266.983 Q364.845,268.815 363.496,271.512 Q362.148,274.209 362.148,277.735 Q362.148,281.192 363.323,283.508 Q364.499,285.825 366.469,287.381 Q368.44,288.936 370.929,289.87 Q373.418,290.803 375.977,291.495 Q376.668,291.633 377.256,291.806 Q377.844,291.979 378.189,292.117 L378.189,306.568 Q375.009,305.946 372.865,303.664 Q370.722,301.382 370.791,297.441 z M382.269,306.568 L382.269,293.292 Q386.348,294.399 388.042,295.747 Q389.736,297.095 389.736,299.792 Q389.736,301.451 389.045,302.661 Q388.354,303.871 387.282,304.701 Q386.21,305.531 384.862,305.98 Q383.513,306.43 382.269,306.568 z M378.189,271.028 L378.189,282.298 Q374.87,281.538 373.418,280.293 Q371.966,279.049 371.966,276.767 Q371.966,275.315 372.485,274.243 Q373.004,273.171 373.902,272.445 Q374.801,271.719 375.908,271.374 Q377.014,271.028 378.189,271.028 z" fill="url(#Gradient_11)"/>
      </g>
    </g>
    <g>
      <path d="M595.529,-667.995 C623.507,-667.995 646.187,-645.315 646.187,-617.337 L646.187,-466.908 L646.187,-466.908 L646.187,-466.886 L646.164,-466.886 L626.972,-447.693 L626.972,-447.735 L568.159,-388.923 L568.201,-388.923 L548.986,-369.707 L407.434,-369.707 L407.43,-369.707 L210.459,-369.707 C182.481,-369.707 159.801,-392.387 159.801,-420.365 L159.8,-617.337 C159.801,-645.315 182.481,-667.995 210.459,-667.995 L595.529,-667.995 z M358.94,-648.78 L210.459,-648.78 C193.094,-648.78 179.016,-634.702 179.016,-617.337 L179.016,-588.909 L179.038,-588.909 L179.038,-565.895 L179.016,-565.895 L179.016,-420.366 C179.016,-402.999 193.094,-388.922 210.459,-388.922 L329.791,-388.923 L329.791,-388.855 L483.112,-388.855 L483.112,-388.922 L529.713,-388.923 L529.712,-435.443 C529.713,-463.42 552.393,-486.1 580.371,-486.1 L626.972,-486.1 L626.972,-565.895 L626.97,-565.895 L626.97,-588.909 L626.972,-588.909 L626.972,-617.337 C626.972,-634.702 612.895,-648.78 595.529,-648.78 L447.048,-648.78 L447.065,-648.757 L407.884,-648.757 L407.431,-648.78 L398.557,-648.78 L398.1,-648.757 L358.924,-648.757 L358.94,-648.78 z M623.889,-466.886 L580.371,-466.886 C563.006,-466.885 548.928,-452.808 548.928,-435.442 L548.928,-407.014 L548.95,-407.014 L548.95,-391.947 L623.889,-466.886 z" fill="url(#Gradient_12)" opacity="0.83"/>
      <path d="M246.722,-541.425 L265.587,-592.17 L252.748,-592.17 L242.879,-561.252 L242.704,-561.252 L232.485,-592.17 L219.296,-592.17 L235.105,-549.81 Q235.629,-548.5 235.629,-547.015 Q235.629,-545.006 234.45,-543.346 Q233.271,-541.687 230.825,-541.425 Q228.991,-541.338 227.157,-541.512 Q225.323,-541.687 223.576,-541.862 L223.576,-531.643 Q225.498,-531.468 227.375,-531.337 Q229.253,-531.206 231.175,-531.206 Q237.551,-531.206 241.132,-533.564 Q244.713,-535.922 246.722,-541.425 z" fill="url(#Gradient_13)" opacity="0.83"/>
      <path d="M280.785,-569.549 Q280.785,-572.257 281.309,-574.877 Q281.833,-577.497 283.099,-579.506 Q284.366,-581.515 286.462,-582.781 Q288.558,-584.048 291.702,-584.048 Q294.847,-584.048 296.986,-582.781 Q299.126,-581.515 300.393,-579.506 Q301.659,-577.497 302.183,-574.877 Q302.707,-572.257 302.707,-569.549 Q302.707,-566.841 302.183,-564.265 Q301.659,-561.688 300.393,-559.636 Q299.126,-557.583 296.986,-556.36 Q294.847,-555.138 291.702,-555.138 Q288.558,-555.138 286.462,-556.36 Q284.366,-557.583 283.099,-559.636 Q281.833,-561.688 281.309,-564.265 Q280.785,-566.841 280.785,-569.549 z M268.382,-569.549 Q268.382,-564.134 270.042,-559.767 Q271.701,-555.4 274.758,-552.299 Q277.815,-549.198 282.095,-547.539 Q286.374,-545.879 291.702,-545.879 Q297.03,-545.879 301.354,-547.539 Q305.677,-549.198 308.734,-552.299 Q311.791,-555.4 313.45,-559.767 Q315.11,-564.134 315.11,-569.549 Q315.11,-574.964 313.45,-579.375 Q311.791,-583.786 308.734,-586.886 Q305.677,-589.987 301.354,-591.69 Q297.03,-593.393 291.702,-593.393 Q286.374,-593.393 282.095,-591.69 Q277.815,-589.987 274.758,-586.886 Q271.701,-583.786 270.042,-579.375 Q268.382,-574.964 268.382,-569.549 z" fill="url(#Gradient_14)" opacity="0.83"/>
      <path d="M365.506,-547.015 L365.506,-592.17 L353.103,-592.17 L353.103,-568.501 Q353.103,-561.601 350.832,-558.588 Q348.561,-555.574 343.496,-555.574 Q339.041,-555.574 337.294,-558.326 Q335.548,-561.077 335.548,-566.667 L335.548,-592.17 L323.145,-592.17 L323.145,-564.396 Q323.145,-560.203 323.887,-556.753 Q324.63,-553.303 326.464,-550.902 Q328.298,-548.5 331.486,-547.19 Q334.674,-545.879 339.653,-545.879 Q343.583,-545.879 347.339,-547.626 Q351.094,-549.373 353.453,-553.303 L353.715,-553.303 L353.715,-547.015 z" fill="url(#Gradient_15)" opacity="0.83"/>
      <path d="M374.939,-592.17 L374.939,-547.015 L387.342,-547.015 L387.342,-567.365 Q387.342,-570.422 387.953,-573.043 Q388.565,-575.663 390.006,-577.628 Q391.447,-579.593 393.805,-580.729 Q396.163,-581.864 399.57,-581.864 Q400.705,-581.864 401.928,-581.733 Q403.151,-581.602 404.024,-581.427 L404.024,-592.956 Q402.539,-593.393 401.316,-593.393 Q398.958,-593.393 396.775,-592.694 Q394.591,-591.996 392.67,-590.729 Q390.748,-589.463 389.263,-587.672 Q387.778,-585.882 386.905,-583.786 L386.73,-583.786 L386.73,-592.17 z" fill="url(#Gradient_16)" opacity="0.83"/>
      <path d="M223.925,-471.726 Q224.187,-476.094 226.109,-478.976 Q228.03,-481.858 231,-483.605 Q233.969,-485.352 237.681,-486.094 Q241.393,-486.837 245.149,-486.837 Q248.555,-486.837 252.049,-486.356 Q255.543,-485.876 258.425,-484.478 Q261.307,-483.081 263.141,-480.592 Q264.976,-478.102 264.976,-473.997 L264.976,-450.502 Q264.976,-447.445 265.325,-444.651 Q265.674,-441.856 266.548,-440.458 L253.971,-440.458 Q253.621,-441.506 253.403,-442.598 Q253.184,-443.69 253.097,-444.825 Q250.128,-441.768 246.11,-440.546 Q242.092,-439.323 237.9,-439.323 Q234.668,-439.323 231.873,-440.109 Q229.078,-440.895 226.982,-442.554 Q224.886,-444.214 223.707,-446.747 Q222.528,-449.28 222.528,-452.773 Q222.528,-456.616 223.881,-459.106 Q225.235,-461.595 227.375,-463.08 Q229.515,-464.564 232.266,-465.307 Q235.017,-466.049 237.812,-466.486 Q240.607,-466.923 243.315,-467.185 Q246.022,-467.447 248.119,-467.971 Q250.215,-468.495 251.438,-469.499 Q252.66,-470.504 252.573,-472.425 Q252.573,-474.434 251.918,-475.613 Q251.263,-476.792 250.171,-477.447 Q249.079,-478.102 247.638,-478.321 Q246.197,-478.539 244.538,-478.539 Q240.869,-478.539 238.773,-476.967 Q236.677,-475.395 236.328,-471.726 z M252.573,-462.556 Q251.787,-461.857 250.608,-461.464 Q249.429,-461.071 248.075,-460.809 Q246.721,-460.547 245.236,-460.372 Q243.752,-460.197 242.267,-459.935 Q240.869,-459.673 239.516,-459.237 Q238.162,-458.8 237.157,-458.057 Q236.153,-457.315 235.541,-456.18 Q234.93,-455.044 234.93,-453.297 Q234.93,-451.638 235.541,-450.502 Q236.153,-449.367 237.201,-448.712 Q238.249,-448.057 239.647,-447.795 Q241.044,-447.533 242.529,-447.533 Q246.197,-447.533 248.206,-448.756 Q250.215,-449.978 251.176,-451.682 Q252.136,-453.385 252.355,-455.132 Q252.573,-456.878 252.573,-457.926 z" fill="url(#Gradient_17)" opacity="0.83"/>
      <path d="M306.637,-463.167 Q306.637,-460.372 306.113,-457.752 Q305.589,-455.132 304.367,-453.079 Q303.144,-451.026 301.091,-449.804 Q299.039,-448.581 295.982,-448.581 Q293.1,-448.581 291.047,-449.847 Q288.995,-451.114 287.641,-453.166 Q286.287,-455.219 285.676,-457.839 Q285.064,-460.459 285.064,-463.08 Q285.064,-465.875 285.632,-468.451 Q286.2,-471.028 287.466,-473.037 Q288.732,-475.045 290.829,-476.268 Q292.925,-477.491 295.982,-477.491 Q299.039,-477.491 301.048,-476.268 Q303.056,-475.045 304.323,-473.08 Q305.589,-471.115 306.113,-468.538 Q306.637,-465.962 306.637,-463.167 z M306.812,-446.223 L306.812,-440.458 L318.603,-440.458 L318.603,-502.82 L306.201,-502.82 L306.201,-480.111 L306.026,-480.111 Q303.93,-483.43 300.305,-485.133 Q296.681,-486.837 292.663,-486.837 Q287.684,-486.837 283.929,-484.871 Q280.173,-482.906 277.684,-479.675 Q275.195,-476.443 273.928,-472.207 Q272.662,-467.971 272.662,-463.429 Q272.662,-458.713 273.928,-454.345 Q275.195,-449.978 277.684,-446.616 Q280.173,-443.253 284.016,-441.288 Q287.859,-439.323 292.925,-439.323 Q297.379,-439.323 300.917,-440.939 Q304.454,-442.554 306.637,-446.223 z" fill="url(#Gradient_18)" opacity="0.83"/>
      <path d="M328.474,-453.909 L328.474,-440.458 L342.186,-440.458 L342.186,-453.909 z" fill="url(#Gradient_19)" opacity="0.83"/>
    </g>
  </g>
</svg>
