<?xml version="1.0" encoding="UTF-8"?>
<!DOCTYPE svg PUBLIC "-//W3C//DTD SVG 1.1//EN" "http://www.w3.org/Graphics/SVG/1.1/DTD/svg11.dtd">
<svg version="1.1" xmlns="http://www.w3.org/2000/svg" xmlns:xlink="http://www.w3.org/1999/xlink" x="0" y="0" width="512" height="512" viewBox="0, 0, 512, 512">
  <defs>
    <linearGradient id="Gradient_1" gradientUnits="userSpaceOnUse" x1="-410.821" y1="-133.014" x2="-73.194" y2="-133.014">
      <stop offset="0" stop-color="#FF0400"/>
      <stop offset="1" stop-color="#BA3058"/>
    </linearGradient>
    <linearGradient id="Gradient_2" gradientUnits="userSpaceOnUse" x1="-411.311" y1="-86.403" x2="-72.603" y2="-86.403">
      <stop offset="0" stop-color="#FF0400"/>
      <stop offset="1" stop-color="#BA3058"/>
    </linearGradient>
    <linearGradient id="Gradient_3" gradientUnits="userSpaceOnUse" x1="-307.157" y1="-245.225" x2="-173.774" y2="-245.225">
      <stop offset="0" stop-color="#FF0400"/>
      <stop offset="1" stop-color="#BA3058"/>
    </linearGradient>
    <linearGradient id="Gradient_4" gradientUnits="userSpaceOnUse" x1="-307.157" y1="-245.225" x2="-173.774" y2="-245.225">
      <stop offset="0" stop-color="#FF0400"/>
      <stop offset="1" stop-color="#BA3058"/>
    </linearGradient>
    <linearGradient id="Gradient_5" gradientUnits="userSpaceOnUse" x1="-307.157" y1="-245.225" x2="-173.774" y2="-245.225">
      <stop offset="0" stop-color="#FF0400"/>
      <stop offset="1" stop-color="#BA3058"/>
    </linearGradient>
    <linearGradient id="Gradient_6" gradientUnits="userSpaceOnUse" x1="-307.157" y1="-245.225" x2="-173.774" y2="-245.225">
      <stop offset="0" stop-color="#FF0400"/>
      <stop offset="1" stop-color="#BA3058"/>
    </linearGradient>
    <linearGradient id="Gradient_7" gradientUnits="userSpaceOnUse" x1="-307.157" y1="-245.225" x2="-173.774" y2="-245.225">
      <stop offset="0" stop-color="#FF0400"/>
      <stop offset="1" stop-color="#BA3058"/>
    </linearGradient>
    <linearGradient id="Gradient_8" gradientUnits="userSpaceOnUse" x1="-844.632" y1="243.054" x2="-432.365" y2="243.054">
      <stop offset="0" stop-color="#FF0400"/>
      <stop offset="1" stop-color="#BA3058"/>
    </linearGradient>
    <linearGradient id="Gradient_9" gradientUnits="userSpaceOnUse" x1="-836.479" y1="243.054" x2="-440.669" y2="243.054">
      <stop offset="0" stop-color="#FF0400"/>
      <stop offset="1" stop-color="#BA3058"/>
    </linearGradient>
    <linearGradient id="Gradient_10" gradientUnits="userSpaceOnUse" x1="-843.729" y1="243.461" x2="-433.76" y2="243.461">
      <stop offset="0" stop-color="#FF0400"/>
      <stop offset="1" stop-color="#BA3058"/>
    </linearGradient>
    <linearGradient id="Gradient_11" gradientUnits="userSpaceOnUse" x1="-845.04" y1="243.461" x2="-428.354" y2="243.461">
      <stop offset="0" stop-color="#FF0400"/>
      <stop offset="1" stop-color="#BA3058"/>
    </linearGradient>
    <linearGradient id="Gradient_12" gradientUnits="userSpaceOnUse" x1="12.808" y1="256" x2="311.096" y2="256">
      <stop offset="0" stop-color="#FF0400"/>
      <stop offset="1" stop-color="#BA3058"/>
    </linearGradient>
    <linearGradient id="Gradient_13" gradientUnits="userSpaceOnUse" x1="72.303" y1="258.493" x2="257.03" y2="258.493">
      <stop offset="0" stop-color="#FF0400"/>
      <stop offset="1" stop-color="#BA3058"/>
    </linearGradient>
    <linearGradient id="Gradient_14" gradientUnits="userSpaceOnUse" x1="72.303" y1="258.493" x2="257.03" y2="258.493">
      <stop offset="0" stop-color="#FF0400"/>
      <stop offset="1" stop-color="#BA3058"/>
    </linearGradient>
    <linearGradient id="Gradient_15" gradientUnits="userSpaceOnUse" x1="72.303" y1="258.493" x2="257.03" y2="258.493">
      <stop offset="0" stop-color="#FF0400"/>
      <stop offset="1" stop-color="#BA3058"/>
    </linearGradient>
    <linearGradient id="Gradient_16" gradientUnits="userSpaceOnUse" x1="72.303" y1="258.493" x2="257.03" y2="258.493">
      <stop offset="0" stop-color="#FF0400"/>
      <stop offset="1" stop-color="#BA3058"/>
    </linearGradient>
    <linearGradient id="Gradient_17" gradientUnits="userSpaceOnUse" x1="72.303" y1="258.493" x2="257.03" y2="258.493">
      <stop offset="0" stop-color="#FF0400"/>
      <stop offset="1" stop-color="#BA3058"/>
    </linearGradient>
    <linearGradient id="Gradient_18" gradientUnits="userSpaceOnUse" x1="72.303" y1="258.493" x2="257.03" y2="258.493">
      <stop offset="0" stop-color="#FF0400"/>
      <stop offset="1" stop-color="#BA3058"/>
    </linearGradient>
    <linearGradient id="Gradient_19" gradientUnits="userSpaceOnUse" x1="72.303" y1="258.493" x2="257.03" y2="258.493">
      <stop offset="0" stop-color="#FF0400"/>
      <stop offset="1" stop-color="#BA3058"/>
    </linearGradient>
  </defs>
  <g id="Layer_1">
    <g>
      <g>
        <path d="M-130.533,-301.828 C-98.866,-301.828 -73.194,-276.157 -73.194,-244.489 L-73.194,-21.54 C-73.194,10.128 -98.866,35.799 -130.533,35.799 L-353.483,35.799 C-385.15,35.799 -410.821,10.128 -410.822,-21.54 L-410.822,-244.489 C-410.821,-276.157 -385.15,-301.828 -353.483,-301.828 L-130.533,-301.828 z M-94.943,-186.262 L-389.072,-186.262 L-389.072,-21.54 C-389.072,-1.884 -373.138,14.05 -353.483,14.05 L-130.533,14.05 C-110.877,14.05 -94.943,-1.884 -94.943,-21.54 L-94.943,-186.262 z M-130.533,-280.079 L-353.483,-280.079 C-373.138,-280.079 -389.072,-264.145 -389.072,-244.489 L-389.072,-212.312 L-94.943,-212.312 L-94.943,-244.489 C-94.943,-264.145 -110.877,-280.079 -130.533,-280.079 z" fill="url(#Gradient_1)" opacity="0.83"/>
        <g opacity="0.83">
          <path d="M-199.479,-126.975 L-199.479,-148.685 L-284.538,-148.685 L-284.538,-125.195 L-225.459,-125.195 Q-243.254,-103.664 -254.198,-77.861 Q-265.142,-52.058 -267.277,-24.12 L-240.229,-24.12 Q-240.051,-36.577 -237.293,-50.991 Q-234.535,-65.405 -229.463,-79.463 Q-224.392,-93.521 -216.829,-105.977 Q-209.266,-118.433 -199.479,-126.975 z" fill="#3F3F3F"/>
          <path d="M-199.479,-126.975 L-199.479,-148.685 L-284.538,-148.685 L-284.538,-125.195 L-225.459,-125.195 Q-243.254,-103.664 -254.198,-77.861 Q-265.142,-52.058 -267.277,-24.12 L-240.229,-24.12 Q-240.051,-36.577 -237.293,-50.991 Q-234.535,-65.405 -229.463,-79.463 Q-224.392,-93.521 -216.829,-105.977 Q-209.266,-118.433 -199.479,-126.975 z" fill="url(#Gradient_2)"/>
        </g>
      </g>
      <path d="M-294.582,-231.365 L-294.582,-259.046 L-299.05,-259.046 Q-299.287,-257.464 -300.039,-256.396 Q-300.79,-255.328 -301.878,-254.676 Q-302.965,-254.023 -304.329,-253.766 Q-305.694,-253.509 -307.157,-253.549 L-307.157,-249.318 L-300.197,-249.318 L-300.197,-231.365 z" fill="url(#Gradient_3)" opacity="0.83"/>
      <path d="M-247.484,-231.365 L-239.892,-259.599 L-245.982,-259.599 L-250.608,-240.143 L-250.687,-240.143 L-255.512,-259.599 L-261.325,-259.599 L-266.228,-240.381 L-266.307,-240.381 L-270.776,-259.599 L-276.984,-259.599 L-269.511,-231.365 L-263.223,-231.365 L-258.517,-250.583 L-258.438,-250.583 L-253.653,-231.365 z" fill="url(#Gradient_4)" opacity="0.83"/>
      <path d="M-226.131,-243.782 L-235.265,-243.782 Q-235.226,-244.375 -235.008,-245.126 Q-234.791,-245.877 -234.257,-246.55 Q-233.723,-247.222 -232.833,-247.677 Q-231.944,-248.131 -230.599,-248.131 Q-228.543,-248.131 -227.535,-247.024 Q-226.526,-245.917 -226.131,-243.782 z M-235.265,-240.223 L-220.515,-240.223 Q-220.357,-242.595 -220.911,-244.77 Q-221.464,-246.945 -222.71,-248.645 Q-223.956,-250.346 -225.893,-251.354 Q-227.831,-252.363 -230.441,-252.363 Q-232.774,-252.363 -234.692,-251.532 Q-236.61,-250.702 -237.994,-249.258 Q-239.378,-247.815 -240.129,-245.838 Q-240.881,-243.861 -240.881,-241.567 Q-240.881,-239.194 -240.149,-237.217 Q-239.418,-235.24 -238.073,-233.816 Q-236.729,-232.393 -234.791,-231.622 Q-232.853,-230.851 -230.441,-230.851 Q-226.961,-230.851 -224.509,-232.432 Q-222.058,-234.014 -220.871,-237.692 L-225.814,-237.692 Q-226.091,-236.743 -227.317,-235.892 Q-228.543,-235.042 -230.243,-235.042 Q-232.616,-235.042 -233.881,-236.268 Q-235.147,-237.494 -235.265,-240.223 z" fill="url(#Gradient_5)" opacity="0.83"/>
      <path d="M-203.432,-243.782 L-212.567,-243.782 Q-212.527,-244.375 -212.31,-245.126 Q-212.092,-245.877 -211.559,-246.55 Q-211.025,-247.222 -210.135,-247.677 Q-209.245,-248.131 -207.901,-248.131 Q-205.844,-248.131 -204.836,-247.024 Q-203.828,-245.917 -203.432,-243.782 z M-212.567,-240.223 L-197.817,-240.223 Q-197.659,-242.595 -198.212,-244.77 Q-198.766,-246.945 -200.012,-248.645 Q-201.257,-250.346 -203.195,-251.354 Q-205.133,-252.363 -207.743,-252.363 Q-210.076,-252.363 -211.994,-251.532 Q-213.911,-250.702 -215.296,-249.258 Q-216.68,-247.815 -217.431,-245.838 Q-218.182,-243.861 -218.182,-241.567 Q-218.182,-239.194 -217.451,-237.217 Q-216.719,-235.24 -215.375,-233.816 Q-214.03,-232.393 -212.092,-231.622 Q-210.155,-230.851 -207.743,-230.851 Q-204.263,-230.851 -201.811,-232.432 Q-199.359,-234.014 -198.173,-237.692 L-203.116,-237.692 Q-203.393,-236.743 -204.619,-235.892 Q-205.844,-235.042 -207.545,-235.042 Q-209.918,-235.042 -211.183,-236.268 Q-212.448,-237.494 -212.567,-240.223 z" fill="url(#Gradient_6)" opacity="0.83"/>
      <path d="M-193.982,-259.599 L-193.982,-231.365 L-188.366,-231.365 L-188.366,-238.404 L-186.191,-240.499 L-180.576,-231.365 L-173.774,-231.365 L-182.356,-244.296 L-174.644,-251.809 L-181.288,-251.809 L-188.366,-244.454 L-188.366,-259.599 z" fill="url(#Gradient_7)" opacity="0.83"/>
    </g>
    <g>
      <path d="M-387.713,86.242 C-382.94,86.242 -379.07,90.111 -379.07,94.885 L-379.07,289.751 C-379.07,294.524 -382.94,298.394 -387.713,298.394 L-405.728,298.394 L-405.728,315.059 C-405.728,319.833 -409.598,323.703 -414.371,323.703 L-432.366,323.702 L-432.366,340.487 C-432.365,345.261 -436.235,349.13 -441.008,349.13 L-835.99,349.13 C-840.763,349.13 -844.633,345.261 -844.633,340.487 L-844.633,145.621 C-844.633,140.848 -840.763,136.978 -835.99,136.978 L-817.996,136.978 L-817.996,120.193 C-817.996,115.42 -814.126,111.55 -809.353,111.55 L-791.338,111.55 L-791.338,94.885 C-791.338,90.111 -787.468,86.242 -782.695,86.242 L-387.713,86.242 z M-448.892,151.902 L-828.107,151.902 L-828.107,334.205 L-448.892,334.205 L-448.892,151.902 z M-422.255,126.474 L-801.469,126.474 L-801.469,136.978 L-441.009,136.978 C-436.235,136.978 -432.365,140.848 -432.365,145.621 L-432.366,308.778 L-422.255,308.778 L-422.255,126.474 z M-395.597,101.166 L-774.811,101.166 L-774.811,111.55 L-414.371,111.55 C-409.598,111.55 -405.728,115.42 -405.728,120.193 L-405.728,283.469 L-395.597,283.469 L-395.597,101.166 z" fill="url(#Gradient_8)" opacity="0.83"/>
      <g opacity="0.83">
        <path d="M-638.499,168.228 C-597.174,168.228 -563.673,201.729 -563.673,243.054 C-563.673,284.38 -597.174,317.881 -638.499,317.881 C-679.825,317.881 -713.326,284.38 -713.326,243.054 C-713.326,201.729 -679.825,168.228 -638.499,168.228 z M-638.499,183.262 C-671.522,183.262 -698.291,210.032 -698.291,243.054 C-698.291,276.077 -671.522,302.846 -638.499,302.846 C-605.477,302.846 -578.707,276.077 -578.708,243.054 C-578.707,210.032 -605.477,183.262 -638.499,183.262 z" fill="#FFFFFF"/>
        <path d="M-638.499,168.228 C-597.174,168.228 -563.673,201.729 -563.673,243.054 C-563.673,284.38 -597.174,317.881 -638.499,317.881 C-679.825,317.881 -713.326,284.38 -713.326,243.054 C-713.326,201.729 -679.825,168.228 -638.499,168.228 z M-638.499,183.262 C-671.522,183.262 -698.291,210.032 -698.291,243.054 C-698.291,276.077 -671.522,302.846 -638.499,302.846 C-605.477,302.846 -578.707,276.077 -578.708,243.054 C-578.707,210.032 -605.477,183.262 -638.499,183.262 z" fill="url(#Gradient_9)"/>
      </g>
      <g opacity="0.83">
        <path d="M-783.256,251.862 L-793.005,251.862 Q-792.313,260.021 -787.957,264.238 Q-783.601,268.456 -775.857,269.009 L-775.857,274.887 L-771.778,274.887 L-771.778,269.009 Q-766.592,268.664 -763.273,266.935 Q-759.954,265.206 -757.983,262.994 Q-756.013,260.781 -755.252,258.465 Q-754.492,256.148 -754.492,254.627 Q-754.492,252.899 -754.734,250.686 Q-754.976,248.473 -756.289,246.261 Q-757.603,244.048 -760.369,242.008 Q-763.135,239.969 -768.251,238.586 Q-769.219,238.309 -770.084,238.102 Q-770.948,237.894 -771.778,237.687 L-771.778,225.448 Q-769.427,225.448 -767.767,227.385 Q-766.108,229.321 -766.039,232.086 L-756.22,232.086 Q-756.428,228.491 -757.741,225.863 Q-759.055,223.236 -761.129,221.473 Q-763.204,219.709 -765.935,218.707 Q-768.666,217.704 -771.778,217.359 L-771.778,212.034 L-775.857,212.034 L-775.857,217.359 Q-778.969,217.566 -781.873,218.569 Q-784.777,219.571 -786.989,221.404 Q-789.202,223.236 -790.55,225.932 Q-791.899,228.629 -791.899,232.155 Q-791.899,235.613 -790.723,237.929 Q-789.548,240.245 -787.577,241.801 Q-785.606,243.357 -783.117,244.29 Q-780.628,245.224 -778.07,245.915 Q-777.378,246.053 -776.791,246.226 Q-776.203,246.399 -775.857,246.537 L-775.857,260.989 Q-779.038,260.366 -781.181,258.085 Q-783.325,255.803 -783.256,251.862 z M-771.778,260.989 L-771.778,247.713 Q-767.698,248.819 -766.004,250.168 Q-764.31,251.516 -764.31,254.212 Q-764.31,255.872 -765.001,257.082 Q-765.693,258.292 -766.765,259.122 Q-767.836,259.951 -769.185,260.401 Q-770.533,260.85 -771.778,260.989 z M-775.857,225.448 L-775.857,236.719 Q-779.176,235.958 -780.628,234.714 Q-782.08,233.469 -782.08,231.187 Q-782.08,229.735 -781.562,228.664 Q-781.043,227.592 -780.144,226.866 Q-779.245,226.14 -778.139,225.794 Q-777.033,225.448 -775.857,225.448 z" fill="#3F3F3F"/>
        <path d="M-783.256,251.862 L-793.005,251.862 Q-792.313,260.021 -787.957,264.238 Q-783.601,268.456 -775.857,269.009 L-775.857,274.887 L-771.778,274.887 L-771.778,269.009 Q-766.592,268.664 -763.273,266.935 Q-759.954,265.206 -757.983,262.994 Q-756.013,260.781 -755.252,258.465 Q-754.492,256.148 -754.492,254.627 Q-754.492,252.899 -754.734,250.686 Q-754.976,248.473 -756.289,246.261 Q-757.603,244.048 -760.369,242.008 Q-763.135,239.969 -768.251,238.586 Q-769.219,238.309 -770.084,238.102 Q-770.948,237.894 -771.778,237.687 L-771.778,225.448 Q-769.427,225.448 -767.767,227.385 Q-766.108,229.321 -766.039,232.086 L-756.22,232.086 Q-756.428,228.491 -757.741,225.863 Q-759.055,223.236 -761.129,221.473 Q-763.204,219.709 -765.935,218.707 Q-768.666,217.704 -771.778,217.359 L-771.778,212.034 L-775.857,212.034 L-775.857,217.359 Q-778.969,217.566 -781.873,218.569 Q-784.777,219.571 -786.989,221.404 Q-789.202,223.236 -790.55,225.932 Q-791.899,228.629 -791.899,232.155 Q-791.899,235.613 -790.723,237.929 Q-789.548,240.245 -787.577,241.801 Q-785.606,243.357 -783.117,244.29 Q-780.628,245.224 -778.07,245.915 Q-777.378,246.053 -776.791,246.226 Q-776.203,246.399 -775.857,246.537 L-775.857,260.989 Q-779.038,260.366 -781.181,258.085 Q-783.325,255.803 -783.256,251.862 z M-771.778,260.989 L-771.778,247.713 Q-767.698,248.819 -766.004,250.168 Q-764.31,251.516 -764.31,254.212 Q-764.31,255.872 -765.001,257.082 Q-765.693,258.292 -766.765,259.122 Q-767.836,259.951 -769.185,260.401 Q-770.533,260.85 -771.778,260.989 z M-775.857,225.448 L-775.857,236.719 Q-779.176,235.958 -780.628,234.714 Q-782.08,233.469 -782.08,231.187 Q-782.08,229.735 -781.562,228.664 Q-781.043,227.592 -780.144,226.866 Q-779.245,226.14 -778.139,225.794 Q-777.033,225.448 -775.857,225.448 z" fill="url(#Gradient_10)"/>
      </g>
      <g opacity="0.83">
        <path d="M-512.312,251.862 L-522.061,251.862 Q-521.369,260.021 -517.013,264.238 Q-512.657,268.456 -504.913,269.009 L-504.913,274.887 L-500.834,274.887 L-500.834,269.009 Q-495.648,268.664 -492.329,266.935 Q-489.01,265.206 -487.039,262.994 Q-485.069,260.781 -484.308,258.465 Q-483.548,256.148 -483.548,254.627 Q-483.548,252.899 -483.79,250.686 Q-484.032,248.473 -485.345,246.261 Q-486.659,244.048 -489.425,242.008 Q-492.191,239.969 -497.307,238.586 Q-498.275,238.309 -499.14,238.102 Q-500.004,237.894 -500.834,237.687 L-500.834,225.448 Q-498.483,225.448 -496.823,227.384 Q-495.164,229.321 -495.095,232.086 L-485.276,232.086 Q-485.484,228.491 -486.797,225.863 Q-488.111,223.236 -490.185,221.473 Q-492.26,219.709 -494.991,218.707 Q-497.722,217.704 -500.834,217.359 L-500.834,212.034 L-504.913,212.034 L-504.913,217.359 Q-508.025,217.566 -510.929,218.569 Q-513.833,219.571 -516.045,221.404 Q-518.258,223.236 -519.606,225.932 Q-520.955,228.629 -520.955,232.155 Q-520.955,235.613 -519.779,237.929 Q-518.604,240.245 -516.633,241.801 Q-514.662,243.357 -512.173,244.29 Q-509.684,245.224 -507.126,245.915 Q-506.434,246.053 -505.847,246.226 Q-505.259,246.399 -504.913,246.537 L-504.913,260.989 Q-508.094,260.366 -510.237,258.085 Q-512.381,255.803 -512.312,251.862 z M-500.834,260.989 L-500.834,247.713 Q-496.754,248.819 -495.06,250.168 Q-493.366,251.516 -493.366,254.212 Q-493.366,255.872 -494.057,257.082 Q-494.749,258.292 -495.821,259.122 Q-496.892,259.951 -498.241,260.401 Q-499.589,260.85 -500.834,260.989 z M-504.913,225.448 L-504.913,236.719 Q-508.232,235.958 -509.684,234.714 Q-511.136,233.469 -511.136,231.187 Q-511.136,229.735 -510.617,228.664 Q-510.099,227.592 -509.2,226.866 Q-508.301,226.14 -507.195,225.794 Q-506.089,225.448 -504.913,225.448 z" fill="#3F3F3F"/>
        <path d="M-512.312,251.862 L-522.061,251.862 Q-521.369,260.021 -517.013,264.238 Q-512.657,268.456 -504.913,269.009 L-504.913,274.887 L-500.834,274.887 L-500.834,269.009 Q-495.648,268.664 -492.329,266.935 Q-489.01,265.206 -487.039,262.994 Q-485.069,260.781 -484.308,258.465 Q-483.548,256.148 -483.548,254.627 Q-483.548,252.899 -483.79,250.686 Q-484.032,248.473 -485.345,246.261 Q-486.659,244.048 -489.425,242.008 Q-492.191,239.969 -497.307,238.586 Q-498.275,238.309 -499.14,238.102 Q-500.004,237.894 -500.834,237.687 L-500.834,225.448 Q-498.483,225.448 -496.823,227.384 Q-495.164,229.321 -495.095,232.086 L-485.276,232.086 Q-485.484,228.491 -486.797,225.863 Q-488.111,223.236 -490.185,221.473 Q-492.26,219.709 -494.991,218.707 Q-497.722,217.704 -500.834,217.359 L-500.834,212.034 L-504.913,212.034 L-504.913,217.359 Q-508.025,217.566 -510.929,218.569 Q-513.833,219.571 -516.045,221.404 Q-518.258,223.236 -519.606,225.932 Q-520.955,228.629 -520.955,232.155 Q-520.955,235.613 -519.779,237.929 Q-518.604,240.245 -516.633,241.801 Q-514.662,243.357 -512.173,244.29 Q-509.684,245.224 -507.126,245.915 Q-506.434,246.053 -505.847,246.226 Q-505.259,246.399 -504.913,246.537 L-504.913,260.989 Q-508.094,260.366 -510.237,258.085 Q-512.381,255.803 -512.312,251.862 z M-500.834,260.989 L-500.834,247.713 Q-496.754,248.819 -495.06,250.168 Q-493.366,251.516 -493.366,254.212 Q-493.366,255.872 -494.057,257.082 Q-494.749,258.292 -495.821,259.122 Q-496.892,259.951 -498.241,260.401 Q-499.589,260.85 -500.834,260.989 z M-504.913,225.448 L-504.913,236.719 Q-508.232,235.958 -509.684,234.714 Q-511.136,233.469 -511.136,231.187 Q-511.136,229.735 -510.617,228.664 Q-510.099,227.592 -509.2,226.866 Q-508.301,226.14 -507.195,225.794 Q-506.089,225.448 -504.913,225.448 z" fill="url(#Gradient_11)"/>
      </g>
    </g>
    <g>
      <path d="M448.535,106.856 C476.513,106.856 499.193,129.537 499.193,157.514 L499.193,307.943 L499.193,307.943 L499.193,307.966 L499.171,307.966 L479.978,327.158 L479.978,327.116 L421.166,385.929 L421.208,385.929 L401.992,405.144 L260.44,405.144 L260.437,405.144 L63.465,405.144 C35.488,405.144 12.807,382.464 12.807,354.486 L12.807,157.514 C12.807,129.537 35.488,106.856 63.465,106.856 L448.535,106.856 z M211.946,126.071 L63.465,126.071 C46.1,126.071 32.022,140.149 32.022,157.514 L32.022,185.942 L32.044,185.942 L32.044,208.956 L32.022,208.956 L32.022,354.486 C32.022,371.852 46.1,385.929 63.465,385.929 L182.798,385.929 L182.798,385.996 L336.118,385.996 L336.118,385.929 L382.719,385.929 L382.719,339.409 C382.719,311.431 405.4,288.751 433.377,288.751 L479.978,288.751 L479.978,208.956 L479.976,208.956 L479.976,185.942 L479.978,185.942 L479.978,157.514 C479.978,140.149 465.901,126.071 448.535,126.071 L300.054,126.071 L300.071,126.094 L260.89,126.094 L260.437,126.071 L251.563,126.071 L251.107,126.094 L211.93,126.094 L211.946,126.071 z M476.895,307.966 L433.377,307.966 C416.012,307.966 401.934,322.044 401.934,339.409 L401.934,367.837 L401.956,367.837 L401.956,382.905 L476.895,307.966 z" fill="url(#Gradient_12)" opacity="0.83"/>
      <path d="M99.728,233.426 L118.594,182.681 L105.754,182.681 L95.885,213.6 L95.71,213.6 L85.491,182.681 L72.303,182.681 L88.111,225.041 Q88.635,226.352 88.635,227.836 Q88.635,229.845 87.456,231.505 Q86.277,233.164 83.832,233.426 Q81.997,233.514 80.163,233.339 Q78.329,233.164 76.582,232.989 L76.582,243.208 Q78.504,243.383 80.382,243.514 Q82.259,243.645 84.181,243.645 Q90.557,243.645 94.138,241.287 Q97.719,238.929 99.728,233.426 z" fill="url(#Gradient_13)" opacity="0.83"/>
      <path d="M133.791,205.302 Q133.791,202.595 134.315,199.974 Q134.839,197.354 136.105,195.345 Q137.372,193.336 139.468,192.07 Q141.564,190.803 144.708,190.803 Q147.853,190.803 149.993,192.07 Q152.133,193.336 153.399,195.345 Q154.665,197.354 155.189,199.974 Q155.714,202.595 155.714,205.302 Q155.714,208.01 155.189,210.586 Q154.665,213.163 153.399,215.215 Q152.133,217.268 149.993,218.491 Q147.853,219.714 144.708,219.714 Q141.564,219.714 139.468,218.491 Q137.372,217.268 136.105,215.215 Q134.839,213.163 134.315,210.586 Q133.791,208.01 133.791,205.302 z M121.388,205.302 Q121.388,210.717 123.048,215.084 Q124.707,219.452 127.764,222.552 Q130.821,225.653 135.101,227.312 Q139.381,228.972 144.708,228.972 Q150.036,228.972 154.36,227.312 Q158.683,225.653 161.74,222.552 Q164.797,219.452 166.457,215.084 Q168.116,210.717 168.116,205.302 Q168.116,199.887 166.457,195.476 Q164.797,191.066 161.74,187.965 Q158.683,184.864 154.36,183.161 Q150.036,181.458 144.708,181.458 Q139.381,181.458 135.101,183.161 Q130.821,184.864 127.764,187.965 Q124.707,191.066 123.048,195.476 Q121.388,199.887 121.388,205.302 z" fill="url(#Gradient_14)" opacity="0.83"/>
      <path d="M218.512,227.836 L218.512,182.681 L206.109,182.681 L206.109,206.35 Q206.109,213.25 203.839,216.264 Q201.568,219.277 196.502,219.277 Q192.047,219.277 190.301,216.526 Q188.554,213.774 188.554,208.184 L188.554,182.681 L176.151,182.681 L176.151,210.455 Q176.151,214.648 176.894,218.098 Q177.636,221.548 179.47,223.95 Q181.304,226.351 184.492,227.662 Q187.68,228.972 192.659,228.972 Q196.589,228.972 200.345,227.225 Q204.101,225.478 206.459,221.548 L206.721,221.548 L206.721,227.836 z" fill="url(#Gradient_15)" opacity="0.83"/>
      <path d="M227.945,182.681 L227.945,227.836 L240.348,227.836 L240.348,207.486 Q240.348,204.429 240.959,201.809 Q241.571,199.188 243.012,197.223 Q244.453,195.258 246.811,194.122 Q249.169,192.987 252.576,192.987 Q253.711,192.987 254.934,193.118 Q256.157,193.249 257.03,193.424 L257.03,181.895 Q255.545,181.458 254.323,181.458 Q251.964,181.458 249.781,182.157 Q247.597,182.855 245.676,184.122 Q243.754,185.388 242.269,187.179 Q240.785,188.969 239.911,191.066 L239.737,191.066 L239.737,182.681 z" fill="url(#Gradient_16)" opacity="0.83"/>
      <path d="M76.931,303.125 Q77.193,298.758 79.115,295.875 Q81.036,292.993 84.006,291.246 Q86.976,289.499 90.688,288.757 Q94.4,288.015 98.155,288.015 Q101.562,288.015 105.055,288.495 Q108.549,288.975 111.431,290.373 Q114.313,291.77 116.148,294.26 Q117.982,296.749 117.982,300.854 L117.982,324.349 Q117.982,327.406 118.331,330.201 Q118.681,332.995 119.554,334.393 L106.977,334.393 Q106.627,333.345 106.409,332.253 Q106.191,331.161 106.103,330.026 Q103.134,333.083 99.116,334.306 Q95.098,335.528 90.906,335.528 Q87.674,335.528 84.879,334.742 Q82.084,333.956 79.988,332.297 Q77.892,330.637 76.713,328.104 Q75.534,325.571 75.534,322.078 Q75.534,318.235 76.888,315.746 Q78.241,313.256 80.381,311.771 Q82.521,310.287 85.272,309.544 Q88.024,308.802 90.819,308.365 Q93.613,307.928 96.321,307.666 Q99.029,307.404 101.125,306.88 Q103.221,306.356 104.444,305.352 Q105.667,304.347 105.579,302.426 Q105.579,300.417 104.924,299.238 Q104.269,298.059 103.177,297.404 Q102.086,296.749 100.644,296.53 Q99.203,296.312 97.544,296.312 Q93.876,296.312 91.779,297.884 Q89.683,299.456 89.334,303.125 z M105.579,312.296 Q104.793,312.994 103.614,313.387 Q102.435,313.78 101.081,314.042 Q99.727,314.304 98.243,314.479 Q96.758,314.654 95.273,314.916 Q93.876,315.178 92.522,315.615 Q91.168,316.051 90.164,316.794 Q89.159,317.536 88.548,318.671 Q87.936,319.807 87.936,321.554 Q87.936,323.213 88.548,324.349 Q89.159,325.484 90.207,326.139 Q91.255,326.794 92.653,327.056 Q94.05,327.318 95.535,327.318 Q99.203,327.318 101.212,326.095 Q103.221,324.873 104.182,323.17 Q105.143,321.466 105.361,319.72 Q105.579,317.973 105.579,316.925 z" fill="url(#Gradient_17)" opacity="0.83"/>
      <path d="M159.644,311.684 Q159.644,314.479 159.12,317.099 Q158.596,319.72 157.373,321.772 Q156.15,323.825 154.098,325.047 Q152.045,326.27 148.988,326.27 Q146.106,326.27 144.053,325.004 Q142.001,323.737 140.647,321.685 Q139.293,319.632 138.682,317.012 Q138.07,314.392 138.07,311.772 Q138.07,308.977 138.638,306.4 Q139.206,303.823 140.472,301.815 Q141.739,299.806 143.835,298.583 Q145.931,297.36 148.988,297.36 Q152.045,297.36 154.054,298.583 Q156.063,299.806 157.329,301.771 Q158.596,303.736 159.12,306.313 Q159.644,308.889 159.644,311.684 z M159.818,328.628 L159.818,334.393 L171.609,334.393 L171.609,272.031 L159.207,272.031 L159.207,294.74 L159.032,294.74 Q156.936,291.421 153.311,289.718 Q149.687,288.015 145.669,288.015 Q140.691,288.015 136.935,289.98 Q133.179,291.945 130.69,295.177 Q128.201,298.408 126.934,302.644 Q125.668,306.88 125.668,311.422 Q125.668,316.139 126.934,320.506 Q128.201,324.873 130.69,328.235 Q133.179,331.598 137.022,333.563 Q140.865,335.528 145.931,335.528 Q150.385,335.528 153.923,333.913 Q157.46,332.297 159.644,328.628 z" fill="url(#Gradient_18)" opacity="0.83"/>
      <path d="M181.48,320.942 L181.48,334.393 L195.192,334.393 L195.192,320.942 z" fill="url(#Gradient_19)" opacity="0.83"/>
    </g>
  </g>
</svg>
